# xmcd
#
# Track frame offsets:
#	150
#	15692
#	33603
#	45682
#	49718
#	59392
#
# Disc length: 1047 seconds
#
# Revision: 1
# Processed by: cddbd v1.5.2PL0 Copyright (c) Steve Scherf et al.
# Submitted via: audiograbber 1.83.01
#
DISCID=4b041506
DTITLE=Koreopsis - Resin
DYEAR=2008
DGENRE=Death Metal
TTITLE0=Suffernest
TTITLE1=Feelings into resin
TTITLE2=Puppet
TTITLE3=Being bored as a lifestyle
TTITLE4=The commercial breaks are my palpitations
TTITLE5=Desert in my eye
EXTD=
EXTT0=
EXTT1=
EXTT2=
EXTT3=
EXTT4=
EXTT5=
PLAYORDER=
